# xmcd
#
# Track frame offsets: 
#        150
#        14474
#        32194
#        51086
#        61031
#        73746
#        90491
#        104009
#        119004
#        134429
#        149571
#        162719
#        174429
#        190738
#
# Disc length: 2758 seconds
#
# Revision: 0
# Processed by: cddbd v1.5.1PL2 Copyright (c) Steve Scherf et al.
# Submitted via: ExactAudioCopy v0.95b3
#
DISCID=d10ac40e
DTITLE=Riley Baugus - Long Steel Rail
DYEAR=2006
DGENRE=Bluegrass
TTITLE0=Long Steel Rail
TTITLE1=June Apple
TTITLE2=What Are They Doing In Heaven
TTITLE3=Sail Away Ladies
TTITLE4=Rove Riley Rove
TTITLE5=Wandering Boy
TTITLE6=Boll Weevil
TTITLE7=Old John Henry
TTITLE8=Willow Tree
TTITLE9=George Collins
TTITLE10=I'm Troubled
TTITLE11=No Corn On Tygart
TTITLE12=Lonesome Road Blues
TTITLE13=Now Is The Cool Of The Day
EXTD=
EXTT0=
EXTT1=
EXTT2=
EXTT3=
EXTT4=
EXTT5=
EXTT6=
EXTT7=
EXTT8=
EXTT9=
EXTT10=
EXTT11=
EXTT12=
EXTT13=
PLAYORDER=
